<svg width="80" height="80" viewBox="0 0 80 80" fill="none" xmlns="http://www.w3.org/2000/svg">
<rect width="80" height="80" rx="10" fill="#CD1818"/>
<path d="M14.168 62.34C12.6266 62.34 11.38 61.864 10.428 60.912C9.5213 59.96 9.06797 58.736 9.06797 57.24C9.06797 55.7893 9.5213 54.6107 10.428 53.704C11.38 52.752 12.6266 52.276 14.168 52.276C15.7546 52.276 16.9786 52.752 17.84 53.704C18.7466 54.6107 19.2 55.7893 19.2 57.24C19.2 58.736 18.7466 59.96 17.84 60.912C16.9786 61.864 15.7546 62.34 14.168 62.34ZM14.168 38.472C12.6266 38.472 11.38 37.996 10.428 37.044C9.5213 36.092 9.06797 34.8907 9.06797 33.44C9.06797 31.944 9.5213 30.7427 10.428 29.836C11.38 28.884 12.6266 28.408 14.168 28.408C15.7546 28.408 16.9786 28.884 17.84 29.836C18.7466 30.7427 19.2 31.944 19.2 33.44C19.2 34.8907 18.7466 36.092 17.84 37.044C16.9786 37.996 15.7546 38.472 14.168 38.472ZM32.3952 62C30.8992 62 29.7432 61.6147 28.9272 60.844C28.1565 60.028 27.7712 58.872 27.7712 57.376V18.684C27.7712 17.188 28.1565 16.0547 28.9272 15.284C29.7432 14.468 30.8992 14.06 32.3952 14.06H45.5872C53.6112 14.06 59.7992 16.1227 64.1512 20.248C68.5485 24.3733 70.7472 30.2893 70.7472 37.996C70.7472 41.8493 70.1805 45.272 69.0472 48.264C67.9592 51.2107 66.3272 53.704 64.1512 55.744C62.0205 57.784 59.3912 59.348 56.2632 60.436C53.1805 61.4787 49.6218 62 45.5872 62H32.3952ZM36.4752 54.792H45.0432C47.8538 54.792 50.2792 54.452 52.3192 53.772C54.4045 53.0467 56.1272 52.004 57.4872 50.644C58.8925 49.2387 59.9352 47.4933 60.6152 45.408C61.2952 43.2773 61.6352 40.8067 61.6352 37.996C61.6352 32.3747 60.2525 28.1813 57.4872 25.416C54.7218 22.6507 50.5738 21.268 45.0432 21.268H36.4752V54.792Z" fill="white"/>
</svg>
